<?xml version="1.0" encoding="UTF-8"?>
<!DOCTYPE svg PUBLIC "-//W3C//DTD SVG 1.1//EN" "http://www.w3.org/Graphics/SVG/1.1/DTD/svg11.dtd">
<!-- Creator: CorelDRAW -->
<svg xmlns="http://www.w3.org/2000/svg" xml:space="preserve" width="0.803728in" height="0.806201in" style="shape-rendering:geometricPrecision; text-rendering:geometricPrecision; image-rendering:optimizeQuality; fill-rule:evenodd; clip-rule:evenodd"
viewBox="0 0 0.0450848 0.0452235"
 xmlns:xlink="http://www.w3.org/1999/xlink">
 <defs>
  <style type="text/css">
   <![CDATA[
    .str0 {stroke:#00923F;stroke-width:0.000168284}
    .str1 {stroke:#84C225;stroke-width:0.000168284}
    .fil0 {fill:#00923F}
    .fil1 {fill:#84C225}
   ]]>
  </style>
 </defs>
 <g id="Layer_x0020_1">
  <metadata id="CorelCorpID_0Corel-Layer"/>
  <path class="fil0 str0" d="M0.0144762 0.0052645l7.90625e-005 -0.000392 7.90625e-005 -0.000236083 7.88417e-005 -0.0001568 7.90625e-005 -0.0001568 7.99459e-005 -7.86208e-005 7.84e-005 -7.79583e-005 7.95042e-005 -7.95042e-005 7.90625e-005 -7.75166e-005 7.88417e-005 -7.92834e-005 7.90625e-005 -7.84e-005 7.92834e-005 -7.81791e-005 0.000157904 -7.86208e-005 0.000158346 -7.79583e-005 0.000237408 -7.86208e-005 0.00102803 0 0.000236967 7.86208e-005 0.000158125 7.79583e-005 0.000158125 7.86208e-005 7.92834e-005 7.81791e-005 7.90625e-005 7.84e-005 0.000158346 0 0 0.0001568 7.88417e-005 7.95042e-005 7.95042e-005 7.79583e-005 7.84e-005 7.86208e-005 7.95042e-005 0.0001568 7.90625e-005 0.0001568 7.86208e-005 0.000236083 7.90625e-005 0.0003136 0 0.000471062 -7.90625e-005 0.000314042 -7.86208e-005 0.0002352 -7.90625e-005 0.000157904 -7.95042e-005 0.000156137 -7.84e-005 7.86208e-005 -7.95042e-005 0.0001568 -7.88417e-005 7.92834e-005 -0.000158346 7.84e-005 -7.90625e-005 7.84e-005 -7.92834e-005 7.79583e-005 -0.000158125 7.81791e-005 -0.000158125 7.88417e-005 -0.000236967 7.84e-005 -0.00102803 0 -0.000237408 -7.84e-005 -0.000158346 -7.88417e-005 -0.000157904 -7.81791e-005 -7.92834e-005 -7.79583e-005 -7.90625e-005 -7.84e-005 -0.000157904 -7.84e-005 -7.95042e-005 -0.000157904 -7.84e-005 -7.81791e-005 -7.99459e-005 -7.86208e-005 -7.90625e-005 -0.000156137 -7.88417e-005 -0.000157904 -7.90625e-005 -0.0002352 -7.90625e-005 -0.000392221 0 -0.000314483zm0.00442861 0.0165625l0.00980574 0 0.000474596 -7.81791e-005 0.000237188 -7.90625e-005 0.000237188 -7.84e-005 0.000237408 -7.81791e-005 0.000236967 -7.88417e-005 0.000158788 -7.79583e-005 0.000157683 -7.88417e-005 7.88417e-005 -7.81791e-005 0.000157683 -7.90625e-005 0.000158788 -7.81791e-005 7.90625e-005 -7.81791e-005 0.000158346 -7.92834e-005 7.88417e-005 -7.81791e-005 7.86208e-005 -7.84e-005 0.000158788 -7.84e-005 7.88417e-005 -7.84e-005 7.92834e-005 -7.84e-005 7.90625e-005 -7.84e-005 7.92834e-005 -7.88417e-005 7.84e-005 -7.79583e-005 7.95042e-005 -7.90625e-005 7.90625e-005 -7.81791e-005 7.92834e-005 -7.86208e-005 7.90625e-005 -7.88417e-005 7.84e-005 -0.000157242 7.99459e-005 -7.77374e-005 7.88417e-005 -7.81791e-005 7.95042e-005 -0.000157242 7.88417e-005 -7.86208e-005 7.84e-005 -0.000156579 7.97251e-005 -7.97251e-005 7.88417e-005 -0.000155917 7.90625e-005 -0.000157683 7.92834e-005 -0.000156137 7.90625e-005 -0.000236304 7.90625e-005 -0.000156579 7.88417e-005 -0.000236083 7.95042e-005 -0.0002352 7.86208e-005 -0.000392442 7.95042e-005 -0.000549021 0 -0.0113033 -7.95042e-005 -0.000471283 0 -7.84e-005 -7.86208e-005 -0.000314262 -7.95042e-005 -0.000235421 -7.88417e-005 -0.000235421 -7.90625e-005 -0.000157462 -7.90625e-005 -0.0001568 -7.92834e-005 -0.000156579 -7.90625e-005 -0.000156579 -7.88417e-005 -0.000157462 -7.97251e-005 -0.000157021 -7.84e-005 -7.86208e-005 -7.88417e-005 -7.88417e-005 -7.95042e-005 -0.000155917 -7.88417e-005 -7.99459e-005 -7.99459e-005 -7.75166e-005 -7.84e-005 -0.0001568 -7.90625e-005 -7.88417e-005 -7.92834e-005 -7.79583e-005 -7.90625e-005 -7.90625e-005 -7.95042e-005 -7.88417e-005 -7.84e-005 -7.81791e-005 -7.92834e-005 -7.86208e-005 -7.90625e-005 -7.75166e-005 -7.92834e-005 -7.90625e-005 -0.000158125 -7.84e-005 -7.95042e-005 -7.84e-005 -7.86208e-005 -7.90625e-005 -7.88417e-005 -7.81791e-005 -0.000158346 -7.86208e-005 -7.90625e-005 -7.88417e-005 -0.000158788 -7.81791e-005 -7.88417e-005 -7.84e-005 -0.000157683 -7.88417e-005 -0.000157683 -7.77374e-005 -0.000158788 -7.90625e-005 -0.000158346 -7.84e-005 -7.86208e-005 -7.79583e-005 -0.000237408 -7.90625e-005 -0.000157904 -7.84e-005 -0.000237408 -7.84e-005 -0.000237408 -7.86208e-005 -0.000237629 -7.90625e-005 -0.00031625 -7.77374e-005 -0.000315588 -7.92834e-005 -0.000474817 -7.72958e-005 -0.000474817 -7.92834e-005 -0.000632279 -7.81791e-005 -0.000711783 -7.84e-005 -0.00102825 -7.86208e-005 -0.00482392 0 -0.000948971 7.86208e-005 -0.000711563 7.84e-005 -0.000552996 7.81791e-005 -0.000474817 7.92834e-005 -0.000474596 7.72958e-005 -0.000395092 7.92834e-005 -0.000395754 7.77374e-005 -0.000236746 7.90625e-005 -0.000316692 7.86208e-005 -0.00031625 7.84e-005 -0.000237408 7.84e-005 -0.000237408 7.90625e-005 -0.000157904 7.79583e-005 -0.000157462 7.84e-005 -0.000237629 7.90625e-005 -0.000158567 7.77374e-005 -0.000158125 7.88417e-005 -7.90625e-005 7.84e-005 -0.000157904 7.81791e-005 -0.000158346 7.88417e-005 -7.90625e-005 7.86208e-005 -0.000158346 7.81791e-005 -7.92834e-005 7.90625e-005 -7.88417e-005 7.84e-005 -7.84e-005 7.84e-005 -7.99459e-005 7.90625e-005 -7.86208e-005 7.75166e-005 -7.92834e-005 7.86208e-005 -7.92834e-005 7.81791e-005 -7.84e-005 7.88417e-005 -7.90625e-005 7.90625e-005 -7.90625e-005 7.79583e-005 -7.92834e-005 0.000157242 -7.92834e-005 0.000155917 -7.95042e-005 7.99459e-005 -7.86208e-005 0.000155917 -7.90625e-005 0.000157462 -7.95042e-005 0.000235862 -7.88417e-005 0.0002352 -7.88417e-005 0.000313379 -7.90625e-005 0.000392883 -7.92834e-005 0.000706483 0 0.00502356 0.0108338 0 0 0.00133435 -0.0158949 0 -0.000473713 7.86208e-005 -0.000316913 7.84e-005 -0.000237629 7.84e-005 -0.000315588 7.84e-005 -0.000237629 7.92834e-005 -0.000158346 7.79583e-005 -0.000158125 7.84e-005 -0.000157462 7.90625e-005 -0.000158567 7.81791e-005 -0.000158125 7.84e-005 -0.000158125 7.86208e-005 -0.000158346 7.84e-005 -7.88417e-005 7.84e-005 -0.000158567 7.84e-005 -7.95042e-005 7.95042e-005 -7.84e-005 7.77374e-005 -0.000157904 7.88417e-005 -7.95042e-005 7.77374e-005 -7.88417e-005 7.84e-005 -7.92834e-005 7.92834e-005 -0.000158346 7.79583e-005 -7.90625e-005 7.88417e-005 -7.90625e-005 7.84e-005 -7.92834e-005 7.86208e-005 -7.84e-005 7.88417e-005 -7.95042e-005 7.79583e-005 -7.86208e-005 7.84e-005 -7.95042e-005 0.000157242 -7.88417e-005 7.84e-005 -7.92834e-005 7.79583e-005 -7.88417e-005 7.92834e-005 -7.92834e-005 0.000157021 -7.90625e-005 7.86208e-005 -7.92834e-005 7.81791e-005 -7.88417e-005 0.0001568 -7.90625e-005 0.0001568 -7.92834e-005 7.86208e-005 -7.86208e-005 0.000157021 -7.95042e-005 0.000157021 -7.86208e-005 0.000157242 -7.92834e-005 0.000157242 -7.95042e-005 0.000156579 -7.86208e-005 0.000157242 -7.86208e-005 0.0002352 -7.97251e-005 0.0001568 -7.92834e-005 0.000235862 -7.88417e-005 0.0003136 -7.88417e-005 0.000314483 -7.90625e-005 0.0003136 -7.92834e-005 0.000313821 -7.92834e-005 0.000393104 -7.90625e-005 0.000392 -7.88417e-005 0.000392442 -7.90625e-005 0.000392 -7.90625e-005 0.000472167 -7.92834e-005 0.000627862 -7.86208e-005 0.000784442 0 0.00282571 7.86208e-005 0.000863283 7.92834e-005 0.000549683 7.90625e-005 0.000549242 7.90625e-005 0.000314704 7.88417e-005 0.000470179 7.90625e-005 0.000393104 7.92834e-005 0.000313821 7.92834e-005 0.000313821 7.90625e-005 0.000392221 7.88417e-005 0.000313821 7.88417e-005 0.000236304 7.92834e-005 0.0003136 7.97251e-005 0.000156579 7.86208e-005 0.000235862 7.86208e-005 0.000235642 7.95042e-005 0.000156579 7.92834e-005 0.000157462 7.86208e-005 0.0002352 7.95042e-005 0.0001568 7.86208e-005 0.000157021 7.92834e-005 0.000157242 7.90625e-005 7.86208e-005 7.88417e-005 0.000156579 7.92834e-005 0.000157021 7.90625e-005 7.88417e-005 7.92834e-005 7.86208e-005 7.88417e-005 0.000157021 7.92834e-005 7.86208e-005 7.88417e-005 0.000156579 7.95042e-005 7.81791e-005 7.86208e-005 7.86208e-005 7.95042e-005 7.88417e-005 7.84e-005 7.86208e-005 7.92834e-005 7.79583e-005 7.90625e-005 7.84e-005 7.90625e-005 7.88417e-005 7.95042e-005 7.86208e-005 7.88417e-005 7.81791e-005 7.92834e-005 7.84e-005 7.88417e-005 7.86208e-005 0.000157904 7.88417e-005 7.95042e-005 7.81791e-005 7.84e-005 7.88417e-005 0.000158788 7.81791e-005 7.92834e-005 7.88417e-005 0.000158125 7.86208e-005 0.000158125 7.81791e-005 0.000158125 7.86208e-005 0.000157904 7.88417e-005 0.000237188 7.81791e-005 0.00023785 7.81791e-005 0.000236746 7.88417e-005 0.000316471 7.86208e-005 0.000553438 7.81791e-005 0.00434954 0 7.90625e-005 -0.00541644 7.95042e-005 -0.000627642 7.81791e-005 -0.000314042 7.92834e-005 -0.0003136 7.88417e-005 -0.000314483 7.95042e-005 -0.0001568 7.90625e-005 -0.000235862 7.88417e-005 -0.0001568 7.92834e-005 -0.000157021 7.92834e-005 -0.0001568 7.88417e-005 -0.000156579 7.92834e-005 -0.000157462 7.92834e-005 -0.000157242 7.86208e-005 -7.84e-005 7.92834e-005 -0.0001568 7.88417e-005 -7.86208e-005 7.92834e-005 -0.000157242 7.90625e-005 -7.81791e-005 7.88417e-005 -7.86208e-005 7.88417e-005 -0.000156579 7.95042e-005 -7.81791e-005 7.90625e-005 -7.86208e-005 7.86208e-005 -7.90625e-005 7.95042e-005 -7.86208e-005 7.92834e-005 -7.77374e-005 7.92834e-005 -7.90625e-005 7.90625e-005 -7.84e-005 7.90625e-005 -7.84e-005 7.84e-005 -7.84e-005 7.92834e-005 -7.84e-005 7.92834e-005 -7.84e-005 7.86208e-005 -7.84e-005 0.000158346 -7.86208e-005 7.88417e-005 -7.88417e-005 7.92834e-005 -7.84e-005 0.000158346 -7.84e-005 7.90625e-005 -7.90625e-005 0.000158346 -7.77374e-005 7.88417e-005 -7.90625e-005 0.000158125 -7.81791e-005 0.000158125 -7.81791e-005 0.000158567 -7.95042e-005 0.000158567 -7.81791e-005 0.000157462 -7.81791e-005 0.000158125 -7.81791e-005 0.00023785 -7.90625e-005 0.000236967 -7.84e-005 0.000237188 -7.77374e-005 0.000236967 -7.88417e-005 0.000394871 -7.88417e-005 0.0005541 -7.86208e-005 0.00237254 -7.84e-005z"/>
  <path class="fil1 str1" d="M0.0304503 0.0400379l-7.90625e-005 0.000234979 -7.86208e-005 0.000157462 -7.99459e-005 0.000157462 -7.88417e-005 0.000156579 -7.88417e-005 7.79583e-005 -7.95042e-005 7.90625e-005 -7.86208e-005 7.88417e-005 -7.92834e-005 7.77374e-005 -0.000158125 7.90625e-005 -7.92834e-005 7.84e-005 -0.000157904 7.84e-005 -0.000237188 7.86208e-005 -0.000237408 7.79583e-005 -0.000711783 0 -0.00031625 -7.79583e-005 -0.000158125 -7.86208e-005 -0.000157462 -7.84e-005 -7.99459e-005 -7.84e-005 -0.000158125 -7.90625e-005 -7.88417e-005 -7.77374e-005 -7.95042e-005 -7.88417e-005 -7.90625e-005 -7.90625e-005 -7.84e-005 -7.79583e-005 -7.95042e-005 -0.000156579 -7.88417e-005 -0.000157462 -7.92834e-005 -0.000157462 -7.88417e-005 -0.000156579 -7.99459e-005 -0.000313821 0 -0.000549462 7.99459e-005 -0.000313821 7.88417e-005 -0.000235862 7.92834e-005 -0.0001568 7.88417e-005 -7.84e-005 7.95042e-005 -0.000157683 7.84e-005 -7.84e-005 7.90625e-005 -7.81791e-005 7.95042e-005 -7.86208e-005 7.88417e-005 -7.79583e-005 7.90625e-005 -7.86208e-005 0.000159008 -7.88417e-005 0.000157462 -7.79583e-005 0.000158125 -7.88417e-005 0.00031625 -7.86208e-005 0.000711783 0 0.000316471 7.86208e-005 0.000158125 7.88417e-005 0.000157904 7.79583e-005 0.000158125 7.88417e-005 7.92834e-005 7.86208e-005 7.92834e-005 7.79583e-005 7.86208e-005 7.86208e-005 7.95042e-005 7.81791e-005 7.88417e-005 7.84e-005 7.88417e-005 0.000157683 7.99459e-005 0.000157021 7.86208e-005 0.0001568 7.90625e-005 0.000235642 7.88417e-005 0.000392221 0 0.000236304 -7.88417e-005 0.000391779zm0.00411191 -0.0233133l-7.90625e-005 0.000706704 -7.90625e-005 0.000392442 -7.90625e-005 0.0002352 -7.90625e-005 0.000314262 -7.88417e-005 0.000235642 -7.88417e-005 0.0001568 -7.97251e-005 0.000236083 -7.90625e-005 0.000155917 -7.86208e-005 0.000157904 -7.90625e-005 0.000157021 -7.95042e-005 0.000157242 -7.88417e-005 7.81791e-005 -7.90625e-005 0.000157021 -7.92834e-005 0.0001568 -7.86208e-005 7.86208e-005 -7.95042e-005 7.81791e-005 -7.86208e-005 0.000157021 -7.95042e-005 7.88417e-005 -7.88417e-005 7.84e-005 -7.90625e-005 0.0001568 -7.90625e-005 7.84e-005 -7.92834e-005 7.84e-005 -7.90625e-005 7.81791e-005 -7.88417e-005 7.92834e-005 -7.97251e-005 7.81791e-005 -7.84e-005 7.81791e-005 -7.88417e-005 7.90625e-005 -7.95042e-005 7.81791e-005 -7.88417e-005 7.88417e-005 -7.99459e-005 7.79583e-005 -7.84e-005 7.88417e-005 -0.000158346 7.81791e-005 -7.90625e-005 7.84e-005 -7.95042e-005 7.90625e-005 -0.000157683 7.81791e-005 -7.90625e-005 7.84e-005 -7.92834e-005 7.86208e-005 -0.000158125 7.88417e-005 -0.000158125 7.88417e-005 -7.88417e-005 7.77374e-005 -0.000158346 7.84e-005 -0.000158567 7.90625e-005 -0.000158125 7.81791e-005 -0.000236746 7.81791e-005 -0.000158567 7.81791e-005 -0.000157683 7.95042e-005 -0.000237408 7.81791e-005 -0.000316029 7.81791e-005 -0.000316471 7.90625e-005 -0.000395975 7.77374e-005 -0.0121781 7.90625e-005 -0.000553438 7.84e-005 -0.000316029 7.84e-005 -0.000237408 7.88417e-005 -0.000237188 7.86208e-005 -0.000236967 7.84e-005 -0.000157904 7.84e-005 -0.000159008 7.84e-005 -0.000157904 7.84e-005 -0.000157462 7.84e-005 -0.000159229 7.84e-005 -7.84e-005 7.90625e-005 -7.95042e-005 7.77374e-005 -0.000157904 7.86208e-005 -7.92834e-005 7.90625e-005 -0.000158125 7.86208e-005 -7.88417e-005 7.81791e-005 -7.95042e-005 7.81791e-005 -7.88417e-005 7.84e-005 -7.90625e-005 7.86208e-005 -7.88417e-005 7.81791e-005 -7.95042e-005 7.86208e-005 -7.92834e-005 7.86208e-005 -7.88417e-005 7.86208e-005 -7.84e-005 7.84e-005 -7.99459e-005 7.84e-005 -7.86208e-005 0.000157021 -7.92834e-005 7.86208e-005 -7.92834e-005 7.81791e-005 -7.84e-005 0.000157683 -7.90625e-005 7.81791e-005 -7.90625e-005 0.0001568 -7.92834e-005 7.84e-005 -7.92834e-005 0.000157021 -7.95042e-005 0.000157683 -7.86208e-005 0.000156579 -7.90625e-005 0.0001568 -7.95042e-005 0.000235421 -7.88417e-005 0.000235642 -7.88417e-005 0.000235862 -7.90625e-005 0.000313379 -7.92834e-005 0.000549462 0 0.0106754 0 0.000706483 7.92834e-005 0.000471062 7.90625e-005 0.000314042 7.88417e-005 0.000235421 7.88417e-005 0.000157462 7.95042e-005 0.000234537 7.90625e-005 0.000157904 7.86208e-005 7.77374e-005 7.95042e-005 0.000157462 7.92834e-005 0.000157021 7.92834e-005 7.79583e-005 7.90625e-005 0.0001568 7.90625e-005 7.90625e-005 7.84e-005 7.88417e-005 7.92834e-005 7.75166e-005 7.92834e-005 0.000158125 7.86208e-005 7.81791e-005 7.99459e-005 7.86208e-005 7.84e-005 7.84e-005 7.88417e-005 7.79583e-005 7.92834e-005 7.84e-005 0.000158346 7.92834e-005 7.90625e-005 7.77374e-005 7.88417e-005 7.90625e-005 7.95042e-005 7.84e-005 7.88417e-005 7.86208e-005 0.000158125 7.84e-005 7.92834e-005 7.79583e-005 0.000157904 7.92834e-005 7.95042e-005 7.86208e-005 0.000158567 7.77374e-005 7.90625e-005 7.88417e-005 0.000157462 7.77374e-005 0.000157904 0 0 7.90625e-005 0.000159008 7.86208e-005 7.84e-005 7.84e-005 0.000158567 7.86208e-005 0.000157904 7.81791e-005 0.000237188 7.86208e-005 0.000158346 7.81791e-005 0.000158346 7.81791e-005 0.000236746 7.90625e-005 0.000236967 7.84e-005 0.000158788 7.88417e-005 0.000237188 7.81791e-005 0.000237408 7.86208e-005 0.000316471 7.88417e-005 0.000316029 7.77374e-005 0.00031625 7.88417e-005 0.000237408 7.84e-005 0.000315588 7.90625e-005 0.000395533 7.79583e-005 0.000395754 7.81791e-005 0.000474596 7.92834e-005 0.000552996 7.86208e-005 0.000712667 7.77374e-005 0.00300438 0 0.000790625 -7.77374e-005 0.000475038 -7.86208e-005 0.000474154 -7.92834e-005 0.000395092 -7.81791e-005 0.000396196 -7.79583e-005 0.000395092 -7.90625e-005 0.000236746 -7.84e-005 0.000316471 -7.88417e-005 0.000316471 -7.77374e-005 0.000315808 -7.88417e-005 0.000237629 -7.86208e-005 0.000237188 -7.81791e-005 0.000236967 -7.88417e-005 0.000158567 -7.84e-005 0.000237408 -7.90625e-005 0.000157904 -7.81791e-005 0.000237188 -7.81791e-005 0.000158125 -7.86208e-005 0.000158567 -7.81791e-005 0.000158125 -7.86208e-005 0.000157683 -7.84e-005 0.000158567 -7.86208e-005 0.000157904 -7.90625e-005 7.88417e-005 -7.77374e-005 0.000158125 -7.88417e-005 0.000158567 -7.77374e-005 7.92834e-005 -7.86208e-005 0.000157904 -7.92834e-005 7.86208e-005 -7.79583e-005 7.95042e-005 -7.84e-005 0.000158125 -7.86208e-005 7.92834e-005 -7.84e-005 7.90625e-005 -7.90625e-005 7.92834e-005 -7.77374e-005 7.84e-005 -7.92834e-005 7.95042e-005 -7.84e-005 7.90625e-005 -7.79583e-005 7.92834e-005 -7.84e-005 7.90625e-005 -7.86208e-005 7.84e-005 -7.81791e-005 7.99459e-005 -7.84e-005 7.88417e-005 -7.97251e-005 7.95042e-005 -0.000156358 7.88417e-005 -7.90625e-005 7.84e-005 -7.81791e-005 7.97251e-005 -0.000156579 7.88417e-005 -7.86208e-005 7.90625e-005 -0.0001568 7.92834e-005 -0.0001568 7.90625e-005 -0.000157904 7.90625e-005 -0.000156358 7.88417e-005 -0.000235642 7.95042e-005 -0.000235421 7.86208e-005 -0.000314042 7.95042e-005 -0.000549462 0 -0.00463112 -0.0066428 0 -0.0041912 0 0 -0.00125595 0.00854052 0 0.00822427 0 0.000553217 -7.81791e-005 0.00031625 -7.86208e-005 0.000237408 -7.88417e-005 0.000236967 -7.81791e-005 0.000158788 -7.81791e-005 0.000157904 -7.88417e-005 0.000158346 -7.86208e-005 0.000157904 -7.81791e-005 7.90625e-005 -7.86208e-005 0.000158125 -7.88417e-005 7.92834e-005 -7.81791e-005 7.95042e-005 -7.88417e-005 7.88417e-005 -7.81791e-005 7.90625e-005 -7.88417e-005 7.86208e-005 -7.86208e-005 7.88417e-005 -7.84e-005 7.92834e-005 -7.81791e-005 7.88417e-005 -7.86208e-005 7.95042e-005 -7.88417e-005 7.92834e-005 -7.84e-005 7.86208e-005 -7.79583e-005 7.92834e-005 -7.86208e-005 7.92834e-005 -0.000157462 7.92834e-005 -7.81791e-005 7.81791e-005 -0.000156579 7.95042e-005 -7.86208e-005 7.92834e-005 -0.000157021 7.90625e-005 -7.86208e-005 7.92834e-005 -0.000157242 7.90625e-005 -0.000156579 7.84e-005 -0.000157242 7.92834e-005 -0.000157242 7.92834e-005 -0.000157021 7.90625e-005 -0.0001568 7.92834e-005 -0.0002352 7.88417e-005 -0.000157462 7.88417e-005 -0.000156579 7.99459e-005 -0.000235642 7.86208e-005 -0.000157242 7.92834e-005 -0.0002352 7.84e-005 -0.000235642 7.95042e-005 -0.000235421 7.90625e-005 -0.000235642 7.95042e-005 -0.000235421 7.88417e-005 -0.0001568 7.90625e-005 -0.000314262 7.88417e-005 -0.000235642 7.95042e-005 -0.0003136 7.88417e-005 -0.000314262 7.90625e-005 -0.0003136 7.90625e-005 -0.000392662 7.88417e-005 -0.0004704 7.97251e-005 -0.000549904 7.84e-005 -0.000706042 0 -0.000314483 0 -0.00235465 -7.84e-005 -0.000785104 -7.97251e-005 -0.000627642 -7.88417e-005 -0.000549242 -7.90625e-005 -0.000470842 -7.90625e-005 -0.000314704 -7.88417e-005 -0.000470621 -7.95042e-005 -0.000313821 -7.88417e-005 -0.000393104 -7.90625e-005 -0.000313821 -7.88417e-005 -0.0003136 -7.95042e-005 -0.000314483 -7.90625e-005 -0.0003136 -7.95042e-005 -0.000235862 -7.84e-005 -0.000234979 -7.92834e-005 0 0 -0.000235642 -7.86208e-005 -0.0002352 -7.99459e-005 -0.000157242 -7.88417e-005 -0.000235862 -7.88417e-005 -0.000156137 -7.92834e-005 -0.000157904 -7.90625e-005 -0.0001568 -7.92834e-005 -0.0001568 -7.92834e-005 -0.0001568 -7.84e-005 -0.000157021 -7.90625e-005 -0.000157242 -7.92834e-005 -7.84e-005 -7.90625e-005 -0.000157242 -7.92834e-005 -7.84e-005 -7.95042e-005 -7.79583e-005 -7.81791e-005 -0.000157462 -7.92834e-005 -7.84e-005 -7.92834e-005 -7.88417e-005 -7.92834e-005 -7.79583e-005 -7.86208e-005 -0.000157683 -7.92834e-005 -7.77374e-005 -7.95042e-005 -7.88417e-005 -7.88417e-005 -7.77374e-005 -7.92834e-005 -7.95042e-005 -7.88417e-005 -7.84e-005 -0.000157683 -7.84e-005 -7.88417e-005 -7.84e-005 -7.95042e-005 -7.86208e-005 -0.000158125 -7.84e-005 -7.92834e-005 -7.81791e-005 -0.000158125 -7.90625e-005 -0.000158125 -7.84e-005 -0.000158125 -7.79583e-005 -0.000158125 -7.92834e-005 -0.000158125 -7.84e-005 -0.000316471 -7.84e-005 -0.000236967 -7.84e-005 -0.000395092 -7.86208e-005 -0.00498248 0 -7.92834e-005 0.00518058z"/>
 </g>
</svg>
